<?xml version="1.0" standalone="no"?>
<!DOCTYPE svg PUBLIC "-//W3C//DTD SVG 20010904//EN"
 "http://www.w3.org/TR/2001/REC-SVG-20010904/DTD/svg10.dtd">
<svg version="1.0" xmlns="http://www.w3.org/2000/svg"
 width="63.499441pt" height="96.000000pt" viewBox="0 0 63.499441 96.000000"
 preserveAspectRatio="xMidYMid meet">
<metadata>
Created by Potrace Professional 1.1m
</metadata>
<g transform="translate(-26.000559,106.000000) rotate(-360.00) scale(0.095238,-0.095238)"
fill="#00bed2" stroke="none">
<path d="M436 1089 c-3 -13 -12 -64 -20 -114 -14 -83 -20 -97 -63 -150 -107
-131 -107 -301 0 -432 43 -53 49 -67 63 -150 8 -50 17 -101 20 -114 5 -24 8
-24 173 -24 165 0 168 0 173 24 3 13 12 65 21 116 13 78 20 98 52 135 66 77
85 128 85 229 0 101 -19 152 -85 229 -32 37 -39 57 -52 135 -9 51 -18 103 -21
116 -5 24 -8 24 -173 24 -165 0 -168 0 -173 -24z m285 -258 c87 -45 134 -122
134 -222 0 -144 -102 -246 -246 -246 -144 0 -246 102 -246 246 0 118 65 204
183 243 40 13 129 3 175 -21z"/>
<path d="M480 718 c-4 -4 -7 -69 -7 -144 l0 -137 29 28 c28 27 35 29 129 29
54 0 105 4 112 8 10 7 13 37 11 113 l-3 104 -132 3 c-73 2 -135 0 -139 -4z
m218 -67 c-3 -6 -41 -10 -84 -10 -42 0 -80 4 -84 10 -4 7 27 11 84 11 58 0 88
-4 84 -11z m0 -42 c-3 -6 -41 -10 -84 -10 -42 0 -80 4 -84 10 -4 7 27 11 84
11 58 0 88 -4 84 -11z m0 -42 c-3 -6 -41 -10 -84 -10 -42 0 -80 4 -84 10 -4 7
27 11 84 11 58 0 88 -4 84 -11z"/>
</g>
</svg>
